<?xml version="1.0" standalone="no"?>
<!DOCTYPE svg PUBLIC "-//W3C//DTD SVG 20010904//EN"
 "http://www.w3.org/TR/2001/REC-SVG-20010904/DTD/svg10.dtd">
<svg version="1.0" xmlns="http://www.w3.org/2000/svg"
 width="152.000000pt" height="152.000000pt" viewBox="0 0 152.000000 152.000000"
 preserveAspectRatio="xMidYMid meet">
<metadata>
Created by potrace 1.11, written by Peter Selinger 2001-2013
</metadata>
<g transform="translate(0.000000,152.000000) scale(0.100000,-0.100000)"
fill="#000000" stroke="none">
<path d="M0 760 l0 -760 760 0 760 0 0 760 0 760 -760 0 -760 0 0 -760z m830
276 c0 -3 -4 -8 -10 -11 -5 -3 -10 -1 -10 4 0 6 5 11 10 11 6 0 10 -2 10 -4z
m-69 -130 c5 -6 9 4 9 26 0 43 8 68 22 68 6 0 8 -7 4 -15 -3 -8 -3 -22 1 -30
5 -14 8 -14 24 1 11 9 19 13 19 8 0 -5 7 2 16 14 16 23 46 30 42 10 -1 -7 2
-24 6 -36 l8 -24 19 21 c25 27 65 29 54 4 -23 -56 -55 -158 -55 -178 0 -27
-54 -148 -62 -140 -3 4 -11 -10 -18 -29 -6 -20 -15 -34 -20 -31 -5 3 -7 -10
-5 -27 2 -18 1 -25 -1 -15 -7 24 -22 21 -27 -5 -2 -13 -5 -3 -7 22 -2 38 -3
41 -10 20 -8 -25 -8 -25 -10 5 -1 17 -4 24 -7 16 -8 -20 -44 74 -48 124 -2 22
-11 62 -20 88 -14 40 -14 51 -3 65 12 15 11 16 -4 3 -16 -12 -18 -11 -20 10 0
13 -1 30 -1 37 1 6 -3 12 -7 12 -11 0 -19 50 -9 56 5 3 9 -5 9 -16 0 -15 5
-20 14 -17 10 4 12 -1 9 -16 -3 -16 -2 -18 5 -9 7 11 10 11 16 -3 10 -28 26
-6 27 38 l1 42 10 -45 c5 -25 14 -49 19 -54z m-231 9 c7 -9 15 -13 18 -11 2 3
12 -4 22 -16 13 -16 19 -18 25 -8 6 9 4 11 -4 5 -9 -5 -12 -2 -9 11 2 11 11
17 19 15 8 -2 20 -4 28 -5 7 -2 18 -11 23 -22 9 -18 9 -18 -6 0 -9 11 -16 14
-16 8 0 -7 9 -21 21 -33 11 -11 18 -27 15 -35 -4 -10 -2 -12 6 -8 8 5 9 2 5
-9 -3 -9 -2 -19 3 -22 6 -4 10 -19 10 -34 0 -16 7 -47 15 -70 8 -23 14 -44 14
-46 0 -3 7 -28 16 -57 19 -66 19 -74 -2 -57 -14 12 -16 12 -9 -1 8 -17 3 -11
-48 53 -31 39 -52 51 -68 41 -7 -4 -1 -14 13 -25 13 -10 21 -19 17 -19 -4 0
-30 20 -57 44 -37 33 -46 46 -35 50 8 3 13 2 10 -3 -3 -4 6 -18 20 -30 20 -18
25 -19 30 -7 7 17 -25 67 -71 111 -41 39 -90 105 -79 105 5 0 5 4 -1 8 -5 4
-17 16 -25 26 -14 18 -14 19 6 8 12 -6 25 -8 29 -4 3 4 5 3 3 -3 -4 -14 52
-86 62 -80 5 3 11 1 15 -5 3 -5 11 -10 18 -10 6 0 2 6 -8 14 -11 8 -23 12 -27
10 -5 -3 -8 2 -8 10 0 8 5 18 10 21 17 11 6 53 -19 75 -17 14 -20 20 -9 20 9
0 21 -7 28 -15z m510 -49 c0 -3 -4 -16 -10 -30 -6 -18 -6 -26 1 -26 6 0 7 -5
4 -11 -4 -6 2 -5 14 3 12 7 21 16 21 20 0 5 9 3 19 -4 15 -9 24 -8 45 5 39 26
54 20 18 -6 l-32 -24 20 -21 c22 -23 27 -52 9 -52 -5 0 -7 -4 -4 -10 3 -5 15
-10 26 -10 22 0 26 -28 4 -36 -8 -4 -15 -12 -15 -19 0 -13 -28 -30 -43 -26 -4
1 -3 -9 4 -21 6 -13 8 -20 4 -16 -4 4 -16 3 -26 -2 -11 -6 -20 -6 -24 -1 -3 5
0 11 7 14 7 2 0 2 -17 -1 -47 -7 -66 -21 -30 -22 23 0 27 -3 15 -10 -8 -5 -23
-7 -34 -4 -10 4 -16 2 -13 -3 3 -5 -13 -19 -35 -32 -22 -13 -37 -18 -34 -12
10 16 -6 14 -30 -4 -12 -8 -24 -11 -28 -7 -4 3 -4 -1 0 -11 4 -12 1 -17 -10
-17 -10 0 -13 6 -10 15 4 8 1 15 -5 15 -6 0 -11 -6 -11 -14 0 -7 -8 -20 -17
-27 -16 -12 -17 -12 -7 1 6 8 20 47 30 85 10 39 20 62 22 53 2 -10 8 -18 13
-18 11 0 76 134 94 194 7 23 18 40 24 39 6 -2 8 4 4 14 -4 11 -3 14 5 9 8 -5
12 0 12 13 0 12 5 21 10 21 6 0 10 -2 10 -4z m-80 -105 c0 -6 -4 -13 -10 -16
-5 -3 -10 1 -10 9 0 9 5 16 10 16 6 0 10 -4 10 -9z m-496 -19 c3 -5 -1 -9 -9
-9 -8 0 -12 4 -9 9 3 4 7 8 9 8 2 0 6 -4 9 -8z m131 -173 l20 -22 -33 19 c-18
10 -40 30 -49 43 l-16 24 29 -20 c16 -12 38 -31 49 -44z m79 -68 c-2 -3 -12 3
-22 13 -16 17 -16 18 5 5 12 -7 20 -15 17 -18z m103 -33 c-3 -8 -6 -5 -6 6 -1
11 2 17 5 13 3 -3 4 -12 1 -19z m140 -3 c0 -8 -4 -12 -9 -9 -5 3 -15 2 -21 -3
-7 -4 -4 0 6 10 23 21 24 21 24 2z m-206 -22 c13 -16 12 -17 -3 -4 -10 7 -18
15 -18 17 0 8 8 3 21 -13z"/>
<path d="M853 535 c-3 -9 -3 -18 -1 -21 3 -3 8 4 11 16 6 23 -1 27 -10 5z"/>
<path d="M950 540 c-8 -5 -11 -12 -7 -16 4 -4 15 0 24 9 18 18 8 23 -17 7z"/>
</g>
</svg>
